<svg xmlns="http://www.w3.org/2000/svg" width="720" height="1280" viewBox="0 0 720 1280" fill="none">
  <defs>
    <linearGradient id="bgm" x1="0" y1="0" x2="720" y2="1280" gradientUnits="userSpaceOnUse">
      <stop stop-color="#020617"/>
      <stop offset="1" stop-color="#0f172a"/>
    </linearGradient>
    <linearGradient id="accentm" x1="80" y1="180" x2="560" y2="820" gradientUnits="userSpaceOnUse">
      <stop stop-color="#0ea5e9"/>
      <stop offset="1" stop-color="#14b8a6"/>
    </linearGradient>
  </defs>
  <rect width="720" height="1280" rx="40" fill="url(#bgm)"/>
  <rect x="36" y="36" width="648" height="1208" rx="32" fill="#0b1120" stroke="#1f2937"/>
  <rect x="36" y="36" width="648" height="72" rx="32" fill="#111827"/>
  <text x="86" y="82" fill="#e2e8f0" font-family="Arial, sans-serif" font-size="28" font-weight="700">L&amp;M Automóveis</text>
  <text x="86" y="170" fill="#67e8f9" font-family="Arial, sans-serif" font-size="18" font-weight="700">EM PRODUÇÃO</text>
  <text x="86" y="230" fill="white" font-family="Arial, sans-serif" font-size="42" font-weight="800">Sua nova</text>
  <text x="86" y="278" fill="white" font-family="Arial, sans-serif" font-size="42" font-weight="800">conquista</text>
  <text x="86" y="326" fill="white" font-family="Arial, sans-serif" font-size="42" font-weight="800">começa aqui</text>
  <text x="86" y="380" fill="#94a3b8" font-family="Arial, sans-serif" font-size="20">Seminovos, contato rápido</text>
  <text x="86" y="410" fill="#94a3b8" font-family="Arial, sans-serif" font-size="20">e experiência responsiva.</text>
  <rect x="86" y="455" width="220" height="52" rx="12" fill="url(#accentm)"/>
  <text x="134" y="488" fill="#020617" font-family="Arial, sans-serif" font-size="22" font-weight="800">Ver Estoque</text>
  <rect x="86" y="560" width="548" height="200" rx="24" fill="#111827" stroke="#1f2937"/>
  <text x="118" y="615" fill="#e2e8f0" font-family="Arial, sans-serif" font-size="26" font-weight="700">Destaques do estoque</text>
  <rect x="118" y="648" width="160" height="72" rx="16" fill="#0ea5e9" opacity="0.2"/>
  <rect x="300" y="648" width="160" height="72" rx="16" fill="#14b8a6" opacity="0.2"/>
  <rect x="118" y="740" width="160" height="72" rx="16" fill="#0ea5e9" opacity="0.2"/>
  <text x="146" y="692" fill="#67e8f9" font-family="Arial, sans-serif" font-size="26" font-weight="800">500+</text>
  <text x="330" y="692" fill="#67e8f9" font-family="Arial, sans-serif" font-size="26" font-weight="800">98%</text>
  <text x="142" y="784" fill="#67e8f9" font-family="Arial, sans-serif" font-size="26" font-weight="800">150 pts</text>
  <text x="118" y="872" fill="#94a3b8" font-family="Arial, sans-serif" font-size="22">Loja automotiva com foco em</text>
  <text x="118" y="904" fill="#94a3b8" font-family="Arial, sans-serif" font-size="22">credibilidade e conversão.</text>
</svg>